<?xml version="1.0" encoding="utf-8"?>
<!-- Generator: Adobe Illustrator 27.9.0, SVG Export Plug-In . SVG Version: 6.00 Build 0)  -->
<svg version="1.1" id="Layer_1" xmlns="http://www.w3.org/2000/svg" xmlns:xlink="http://www.w3.org/1999/xlink" x="0px" y="0px"
	 viewBox="0 0 50.4 329" style="enable-background:new 0 0 50.4 329;" xml:space="preserve">
<style type="text/css">
	.st0{fill:none;stroke:#1A171D;stroke-width:2;stroke-miterlimit:10;}
</style>
<g id="Group_1314" transform="translate(1788.133 -355.988)">
	<g id="Group_94" transform="translate(-1788.133 365.848)">
		<line id="Line_164" class="st0" x1="-142.4" y1="142.4" x2="-142.4" y2="166.9"/>
		<line id="Line_165" class="st0" x1="-127.4" y1="142.4" x2="-127.4" y2="154.6"/>
		<line id="Line_166" class="st0" x1="-111.4" y1="142.4" x2="-111.4" y2="166.9"/>
		<line id="Line_167" class="st0" x1="-96.4" y1="142.4" x2="-96.4" y2="154.6"/>
		<line id="Line_168" class="st0" x1="-80.5" y1="142.4" x2="-80.5" y2="166.9"/>
		<line id="Line_169" class="st0" x1="-65.5" y1="142.4" x2="-65.5" y2="154.6"/>
		<line id="Line_170" class="st0" x1="-49.8" y1="142.4" x2="-49.8" y2="166.9"/>
		<line id="Line_171" class="st0" x1="-34.8" y1="142.4" x2="-34.8" y2="154.6"/>
		<line id="Line_172" class="st0" x1="-18.8" y1="142.4" x2="-18.8" y2="166.9"/>
		<line id="Line_173" class="st0" x1="-3.8" y1="142.4" x2="-3.8" y2="154.6"/>
		<line id="Line_174" class="st0" x1="12" y1="142.4" x2="12" y2="166.9"/>
		<line id="Line_175" class="st0" x1="27" y1="142.4" x2="27" y2="154.6"/>
		<line id="Line_176" class="st0" x1="42.9" y1="142.4" x2="42.9" y2="166.9"/>
		<line id="Line_177" class="st0" x1="57.9" y1="142.4" x2="57.9" y2="154.6"/>
		<line id="Line_178" class="st0" x1="73.7" y1="142.4" x2="73.7" y2="166.9"/>
		<line id="Line_179" class="st0" x1="88.7" y1="142.4" x2="88.7" y2="154.6"/>
		<line id="Line_180" class="st0" x1="104.6" y1="142.4" x2="104.6" y2="166.9"/>
		<line id="Line_181" class="st0" x1="119.6" y1="142.4" x2="119.6" y2="154.6"/>
		<line id="Line_182" class="st0" x1="135.5" y1="142.4" x2="135.5" y2="166.9"/>
		<line id="Line_183" class="st0" x1="151" y1="142.4" x2="151" y2="154.6"/>
		<line id="Line_184" class="st0" x1="166.9" y1="142.4" x2="166.9" y2="166.9"/>
	</g>
</g>
</svg>
